<?xml version="1.0" encoding="iso-8859-1"?>
<!-- Generator: Adobe Illustrator 19.0.0, SVG Export Plug-In . SVG Version: 6.00 Build 0)  -->
<svg version="1.1" id="Layer_1" xmlns="http://www.w3.org/2000/svg" xmlns:xlink="http://www.w3.org/1999/xlink" x="0px" y="0px"
	 viewBox="0 0 512 512" style="enable-background:new 0 0 512 512;" xml:space="preserve">
<path style="fill:#959595;" d="M113.661,82.029v103.18H10.449L113.661,82.029z"/>
<path style="fill:#FFFFFF;" d="M437.825,398.107V82.029H113.661v103.18H10.449v213.415c0,17.312,14.034,31.346,31.346,31.346
	h427.892C452.09,429.971,437.825,415.705,437.825,398.107z"/>
<path style="fill:#959595;" d="M501.55,168.754v229.354c0,17.598-14.266,31.863-31.863,31.863l0,0
	c-17.598,0-31.863-14.266-31.863-31.863V168.754H501.55z"/>
<rect x="55.388" y="229.359" style="fill:#27B5F7;" width="128.519" height="135.415"/>
<g>
	<path style="fill:#DA3A3F;" d="M119.651,311.472c-28.69,0-51.947,23.258-51.947,51.947c0,0.453,0.023,0.901,0.034,1.351h103.825
		c0.012-0.45,0.034-0.899,0.034-1.351C171.599,334.73,148.341,311.472,119.651,311.472z"/>
	<path style="fill:#DA3A3F;" d="M144.006,278.465v8.654c0,13.395-10.96,24.355-24.355,24.355l0,0
		c-13.395,0-24.355-10.96-24.355-24.355v-8.654c0-11.542,9.356-20.897,20.897-20.897h6.914
		C134.65,257.567,144.006,266.923,144.006,278.465z"/>
</g>
<path d="M501.551,158.305h-53.277V82.029c0-5.771-4.679-10.449-10.449-10.449H113.66c-2.885,0-5.496,1.169-7.387,3.059l0,0
	L3.061,177.82l0,0C1.17,179.711,0,182.323,0,185.209v213.415c0,23.046,18.749,41.795,41.795,41.795h427.893
	c23.331,0,42.312-18.981,42.312-42.312V168.754C512,162.983,507.321,158.305,501.551,158.305z M103.211,107.249v67.511H35.679
	L103.211,107.249z M20.897,398.624V195.658h92.762c5.77,0,10.449-4.678,10.449-10.449V92.478h303.268v305.629
	c0,7.81,2.136,15.128,5.841,21.415H41.795C30.272,419.522,20.897,410.147,20.897,398.624z M491.103,398.107
	c0,11.808-9.607,21.415-21.415,21.415s-21.414-9.607-21.414-21.415V179.202h42.828L491.103,398.107L491.103,398.107z"/>
<path d="M188.868,113.36c-5.542,0-10.145,4.601-10.145,10.144v28.056l-26.721-34.363c-0.084-0.108-0.171-0.212-0.262-0.313
	c-2.071-2.305-4.726-3.523-7.678-3.523c-5.572,0-10.145,4.569-10.145,10.144v57.585c0,5.543,4.602,10.145,10.145,10.145
	s10.145-4.601,10.145-10.145v-27.987l26.767,34.38c0.096,0.123,0.196,0.242,0.303,0.357c2.039,2.22,4.664,3.394,7.591,3.394
	c5.579,0,10.145-4.57,10.145-10.145v-57.585C199.013,117.959,194.412,113.36,188.868,113.36z"/>
<path d="M256.047,133.648c5.543,0,10.145-4.602,10.145-10.145s-4.603-10.144-10.145-10.144H217.67
	c-5.573,0-10.145,4.569-10.145,10.144v57.585c0,5.576,4.567,10.145,10.145,10.145h38.377c5.543,0,10.145-4.602,10.145-10.145
	c0-5.542-4.603-10.144-10.145-10.144h-28.232v-8.503h18.649c2.749,0,5.23-1.026,7.176-2.972c2.868-2.869,3.765-7.304,2.209-11.062
	c-1.557-3.763-5.326-6.256-9.385-6.256h-18.649v-8.503h28.232V133.648z"/>
<path d="M345.77,113.36c-4.345,0-8.484,2.912-9.686,7.15l-6.319,22.693l-6.296-22.688c-1.185-4.317-5.455-7.222-9.859-7.153
	c-4.363,0.069-8.473,2.949-9.607,7.236l-6.241,22.545l-6.28-22.628c-1.768-6.414-9.819-9.103-15.245-5.511
	c-4.098,2.712-5.284,7.48-4.042,12.049c1.237,4.552,13.409,48.433,15.033,54.298c0.483,1.743,0.9,3.432,1.879,4.998
	c3.655,5.842,11.949,6.508,16.411,1.21c0.993-1.179,1.818-2.618,2.231-4.109l6.03-21.808l6.04,21.889
	c1.657,6.089,8.695,9.523,14.393,6.66c2.949-1.483,4.845-4.29,5.705-7.406c1.226-4.441,12.819-46.449,14.435-52.303
	c0.331-1.198,0.668-2.396,0.993-3.595c1.354-5.009-0.444-10.38-5.377-12.633C348.653,113.651,347.213,113.36,345.77,113.36z"/>
<path d="M410.713,155.157c-1.348-3.182-3.681-6.207-7.137-9.251c-3.399-2.99-8.001-5.326-13.653-6.932
	c-1.708-0.492-4.617-1.035-3.49-3.474c0.492-1.066,1.462-1.762,2.655-1.766c1.267-0.004,1.686,0.813,2.372,1.713
	c1.298,1.703,2.869,3.168,4.892,3.952c2.263,0.878,5.074,0.854,7.455-0.123c1.242-0.51,2.351-1.244,3.291-2.185
	c0.928-0.927,1.657-2.011,2.163-3.214c2.315-5.46-0.83-10.694-4.796-14.361c-4.22-3.9-9.795-6.156-15.554-6.156
	c-7.03,0-13.462,3.174-17.905,8.599c-4.668,5.701-6.232,13.623-4.203,20.704c1.14,3.979,3.491,7.35,6.521,10.132
	c2.725,2.504,6.434,4.428,11.325,5.878c3.634,1.088,5.144,2.035,5.723,2.505c1.073,0.87,1.78,1.687,1.959,3.089
	c0.23,1.798-0.411,3.654-1.681,4.944c-2.664,2.703-7.133,2.077-9.165-1.031c-1.892-3.033-4.923-4.703-8.548-4.703
	c-6.249,0-11.021,5.702-10.006,11.853c0.476,2.885,2.33,5.316,4.274,7.413c5.729,6.181,14.382,9.328,22.742,8.29
	c8.296-1.029,15.774-6.257,19.724-13.619c2.072-3.863,2.994-8.223,2.994-12.589C412.662,161.461,412.006,158.208,410.713,155.157
	C409.365,151.975,412.006,158.208,410.713,155.157C409.365,151.975,412.006,158.208,410.713,155.157
	C409.365,151.975,412.006,158.208,410.713,155.157C409.365,151.975,412.006,158.208,410.713,155.157
	C409.365,151.975,412.006,158.208,410.713,155.157C409.365,151.975,412.006,158.208,410.713,155.157
	C409.365,151.975,412.006,158.208,410.713,155.157C409.365,151.975,412.006,158.208,410.713,155.157z"/>
<path d="M183.911,375.219H55.393c-5.77,0-10.449-4.678-10.449-10.449V229.356c0-5.771,4.679-10.449,10.449-10.449h128.519
	c5.77,0,10.449,4.678,10.449,10.449v135.415C194.36,370.542,189.681,375.219,183.911,375.219z M65.841,354.322h107.621V239.805
	H65.841C65.841,239.805,65.841,354.322,65.841,354.322z"/>
<path d="M401.054,239.805H225.693c-5.77,0-10.449-4.678-10.449-10.449c0-5.771,4.679-10.449,10.449-10.449h175.361
	c5.77,0,10.449,4.678,10.449,10.449C411.503,235.127,406.824,239.805,401.054,239.805z"/>
<path d="M401.054,273.658H225.693c-5.77,0-10.449-4.678-10.449-10.449s4.679-10.449,10.449-10.449h175.361
	c5.77,0,10.449,4.678,10.449,10.449C411.503,268.98,406.824,273.658,401.054,273.658z"/>
<path d="M401.054,307.512H225.693c-5.77,0-10.449-4.678-10.449-10.449s4.679-10.449,10.449-10.449h175.361
	c5.77,0,10.449,4.678,10.449,10.449S406.824,307.512,401.054,307.512z"/>
<path d="M401.054,341.366H225.693c-5.77,0-10.449-4.678-10.449-10.449c0-5.771,4.679-10.449,10.449-10.449h175.361
	c5.77,0,10.449,4.678,10.449,10.449C411.503,336.688,406.824,341.366,401.054,341.366z"/>
<path d="M401.054,375.219h-0.145c-5.77,0-10.449-4.678-10.449-10.449s4.679-10.449,10.449-10.449h0.145
	c5.77,0,10.449,4.678,10.449,10.449S406.824,375.219,401.054,375.219z"/>
<path d="M369.705,375.219h-61.454c-5.77,0-10.449-4.678-10.449-10.449s4.679-10.449,10.449-10.449h61.454
	c5.77,0,10.449,4.678,10.449,10.449S375.475,375.219,369.705,375.219z"/>
<path d="M183.911,218.907H55.393c-5.77,0-10.449,4.678-10.449,10.449v135.415c0,5.771,4.679,10.449,10.449,10.449h128.519
	c5.77,0,10.449-4.678,10.449-10.449V229.356C194.36,223.585,189.681,218.907,183.911,218.907z M173.463,239.805v92.086
	c-6.076-10.331-15.037-18.762-25.773-24.186c4.247-5.77,6.764-12.888,6.764-20.587v-8.654c0-17.284-14.062-31.346-31.346-31.346
	h-6.915c-17.284,0-31.346,14.062-31.346,31.346v8.654c0,7.699,2.517,14.817,6.764,20.587C80.877,313.13,71.917,321.56,65.84,331.89
	v-92.085H173.463z M105.745,287.118v-8.654c0-5.761,4.687-10.449,10.449-10.449h6.915c5.761,0,10.449,4.687,10.449,10.449v8.654
	c0,7.667-6.238,13.906-13.906,13.906S105.745,294.786,105.745,287.118z M79.157,354.322c4.159-18.521,20.736-32.401,40.495-32.401
	c19.757,0,36.334,13.88,40.494,32.401H79.157z"/>
<g>
</g>
<g>
</g>
<g>
</g>
<g>
</g>
<g>
</g>
<g>
</g>
<g>
</g>
<g>
</g>
<g>
</g>
<g>
</g>
<g>
</g>
<g>
</g>
<g>
</g>
<g>
</g>
<g>
</g>
</svg>
